<?xml version="1.0" encoding="UTF-8"?>
<svg id="Layer_1" data-name="Layer 1" xmlns="http://www.w3.org/2000/svg" version="1.1" viewBox="0 0 128 128">
  <defs>
    <style>
      .cls-1 {
        fill: #ff5f05;
      }

      .cls-1, .cls-2, .cls-3 {
        stroke-width: 0px;
      }

      .cls-2 {
        fill: #13294b;
      }

      .cls-3 {
        fill: #fff;
      }
    </style>
  </defs>
  <rect class="cls-1" x="-.13" y=".07" width="128" height="128"/>
  <g>
    <g>
      <rect class="cls-3" x="5.49" y="29.55" width="40.96" height="69.06"/>
      <path class="cls-2" d="M18.24,29.45l-.19,25.6h10.98v-25.62h17.92v69.18h-17.92v-28.33h-10.98v28.33l-18.4.12L-.09,29.46h18.34Z"/>
    </g>
    <g>
      <rect class="cls-3" x="47.07" y="29.55" width="40.96" height="69.06"/>
      <path class="cls-2" d="M47.25,44.02c.58-2.86,1.67-5.3,3.28-7.32,1.6-2.02,3.04-4.56,5.93-5.65,2.89-1.09,6.68-1.64,11.37-1.64s5.58.48,8.4,1.45c2.82.96,5.87,3.28,7.51,4.98,1.64,1.7,2.76,3.68,3.37,5.92.61,2.25.92,4.66.92,7.23,0,4.63-.77,8.51-2.31,11.66-1.54,3.15-3.6,6.01-6.17,8.58l-8.02,10.31c-.77.77-1.62,1.64-2.55,2.6-.93.97-1.56,1.96-1.88,2.99h23.51v13.49h-44.9c0-4.82.72-9.36,2.17-13.63s4.13-8.43,8.05-12.48l11.95-12.14c1.73-1.73,2.97-3.39,3.71-4.96.74-1.57,1.11-3.65,1.11-6.22,0-2.89-.42-4.88-1.25-5.97-.83-1.09-1.96-1.64-3.37-1.64-.64,0-1.25.11-1.83.34s-1.11.66-1.59,1.3c-.48.64-.87,1.56-1.16,2.75-.29,1.19-.43,2.75-.43,4.67v2.89h-15.91c.06-3.47-.47-6.63.11-9.49Z"/>
    </g>
    <g>
      <rect class="cls-3" x="90.55" y="29.76" width="37.38" height="68.85"/>
      <path class="cls-2" d="M106.06,29.81v54.15h22.07v14.65h-39.99V29.81h17.92Z"/>
    </g>
  </g>
</svg>